<svg width="84" height="20" viewBox="0 0 84 32" fill="none" xmlns="http://www.w3.org/2000/svg">
<rect width="84" height="32" fill="black" fill-opacity="0.1"/>
<path d="M16 6C14.9 6 14 6.9 14 8V11.17L16 13.17L18 11.17V8C18 7.45 17.78 6.95 17.41 6.58C17.05 6.22 16.55 6 16 6Z" stroke="white" stroke-width="1.5" stroke-miterlimit="10" stroke-linecap="round" stroke-linejoin="round"/>
<path d="M14 20.83V24C14 25.1 14.9 26 16 26C17.1 26 18 25.1 18 24V20.83L16 18.83L14 20.83Z" stroke="white" stroke-width="1.5" stroke-miterlimit="10" stroke-linecap="round" stroke-linejoin="round"/>
<path d="M11.17 14H8C6.9 14 6 14.9 6 16C6 17.1 6.9 18 8 18H11.17L13.17 16L11.17 14Z" stroke="white" stroke-width="1.5" stroke-miterlimit="10" stroke-linecap="round" stroke-linejoin="round"/>
<path d="M24.0001 14H20.8301L18.8301 16L20.8301 18H24.0001C24.5501 18 25.0501 17.78 25.4101 17.41C25.7801 17.05 26.0001 16.55 26.0001 16C26.0001 14.9 25.1001 14 24.0001 14Z" stroke="white" stroke-width="1.5" stroke-miterlimit="10" stroke-linecap="round" stroke-linejoin="round"/>
<path d="M23.07 20.24L18.83 16L16 18.83L20.24 23.07C21.02 23.85 22.29 23.85 23.07 23.07C23.85 22.29 23.85 21.02 23.07 20.24Z" stroke="white" stroke-width="1.5" stroke-miterlimit="10" stroke-linecap="round" stroke-linejoin="round"/>
<path d="M11.76 8.92997C11.37 8.53997 10.86 8.33997 10.34 8.33997C9.82997 8.33997 9.31997 8.53997 8.92997 8.92997C8.14997 9.70997 8.14997 10.98 8.92997 11.76L13.17 16L16 13.17L11.76 8.92997Z" stroke="white" stroke-width="1.5" stroke-miterlimit="10" stroke-linecap="round" stroke-linejoin="round"/>
<path d="M33.1378 23V9.90909H38.3026C39.2955 9.90909 40.1413 10.0987 40.8402 10.478C41.5391 10.853 42.0717 11.375 42.4382 12.044C42.8089 12.7088 42.9943 13.4759 42.9943 14.3452C42.9943 15.2145 42.8068 15.9815 42.4318 16.6463C42.0568 17.3111 41.5135 17.8288 40.8018 18.1996C40.0945 18.5703 39.2379 18.7557 38.2322 18.7557H34.9403V16.5376H37.7848C38.3175 16.5376 38.7564 16.446 39.1016 16.2628C39.451 16.0753 39.7109 15.8175 39.8814 15.4893C40.0561 15.157 40.1435 14.7756 40.1435 14.3452C40.1435 13.9105 40.0561 13.5312 39.8814 13.2074C39.7109 12.8793 39.451 12.6257 39.1016 12.4467C38.7521 12.2635 38.3089 12.1719 37.772 12.1719H35.9055V23H33.1378ZM43.8409 23V13.1818H46.564V23H43.8409ZM45.2088 11.9162C44.804 11.9162 44.4567 11.782 44.1669 11.5135C43.8814 11.2408 43.7387 10.9148 43.7387 10.5355C43.7387 10.1605 43.8814 9.83878 44.1669 9.57031C44.4567 9.29758 44.804 9.16122 45.2088 9.16122C45.6137 9.16122 45.9588 9.29758 46.2444 9.57031C46.5341 9.83878 46.679 10.1605 46.679 10.5355C46.679 10.9148 46.5341 11.2408 46.2444 11.5135C45.9588 11.782 45.6137 11.9162 45.2088 11.9162ZM50.1208 13.1818L51.9234 16.6143L53.7707 13.1818H56.564L53.7195 18.0909L56.6407 23H53.8602L51.9234 19.6058L50.0185 23H47.206L50.1208 18.0909L47.3083 13.1818H50.1208ZM57.2812 23V13.1818H60.0042V23H57.2812ZM58.6491 11.9162C58.2442 11.9162 57.8969 11.782 57.6072 11.5135C57.3217 11.2408 57.1789 10.9148 57.1789 10.5355C57.1789 10.1605 57.3217 9.83878 57.6072 9.57031C57.8969 9.29758 58.2442 9.16122 58.6491 9.16122C59.0539 9.16122 59.3991 9.29758 59.6846 9.57031C59.9744 9.83878 60.1192 10.1605 60.1192 10.5355C60.1192 10.9148 59.9744 11.2408 59.6846 11.5135C59.3991 11.782 59.0539 11.9162 58.6491 11.9162ZM64.0852 23.1854C63.4588 23.1854 62.9005 23.0767 62.4105 22.8594C61.9204 22.6378 61.5326 22.3118 61.2471 21.8814C60.9659 21.4467 60.8252 20.9055 60.8252 20.2578C60.8252 19.7124 60.9254 19.2543 61.1257 18.8835C61.326 18.5128 61.5987 18.2145 61.9439 17.9886C62.289 17.7628 62.6811 17.5923 63.12 17.4773C63.5632 17.3622 64.0277 17.2812 64.5135 17.2344C65.0845 17.1747 65.5447 17.1193 65.8941 17.0682C66.2436 17.0128 66.4971 16.9318 66.6548 16.8253C66.8125 16.7187 66.8913 16.5611 66.8913 16.3523V16.3139C66.8913 15.9091 66.7635 15.5959 66.5078 15.3743C66.2564 15.1527 65.8984 15.0419 65.4339 15.0419C64.9439 15.0419 64.5539 15.1506 64.2642 15.3679C63.9744 15.581 63.7826 15.8494 63.6889 16.1733L61.1704 15.9688C61.2983 15.3722 61.5497 14.8565 61.9247 14.4219C62.2997 13.983 62.7833 13.6463 63.3757 13.4119C63.9723 13.1733 64.6626 13.054 65.4467 13.054C65.9922 13.054 66.5142 13.1179 67.0127 13.2457C67.5156 13.3736 67.9609 13.5717 68.3487 13.8402C68.7407 14.1087 69.0497 14.4538 69.2755 14.8757C69.5014 15.2933 69.6143 15.794 69.6143 16.3778V23H67.0319V21.6385H66.9552C66.7975 21.9453 66.5866 22.2159 66.3224 22.4503C66.0582 22.6804 65.7407 22.8615 65.37 22.9936C64.9993 23.1214 64.571 23.1854 64.0852 23.1854ZM64.865 21.3061C65.2656 21.3061 65.6193 21.2273 65.9261 21.0696C66.2329 20.9077 66.4737 20.6903 66.6484 20.4176C66.8231 20.1449 66.9105 19.8359 66.9105 19.4908V18.4489C66.8252 18.5043 66.7081 18.5554 66.5589 18.6023C66.414 18.6449 66.25 18.6854 66.0667 18.7237C65.8835 18.7578 65.7002 18.7898 65.517 18.8196C65.3338 18.8452 65.1676 18.8686 65.0184 18.8899C64.6988 18.9368 64.4197 19.0114 64.1811 19.1136C63.9424 19.2159 63.7571 19.3544 63.625 19.5291C63.4929 19.6996 63.4268 19.9126 63.4268 20.1683C63.4268 20.5391 63.561 20.8224 63.8295 21.0185C64.1022 21.2102 64.4474 21.3061 64.865 21.3061ZM78.9959 15.9815L76.503 16.1349C76.4604 15.9219 76.3688 15.7301 76.2282 15.5597C76.0875 15.3849 75.9022 15.2464 75.6721 15.1442C75.4462 15.0376 75.1756 14.9844 74.8603 14.9844C74.4384 14.9844 74.0826 15.0739 73.7928 15.2528C73.503 15.4276 73.3581 15.6619 73.3581 15.956C73.3581 16.1903 73.4519 16.3885 73.6394 16.5504C73.8269 16.7124 74.1486 16.8423 74.6046 16.9403L76.3816 17.2983C77.3361 17.4943 78.0478 17.8097 78.5165 18.2443C78.9853 18.679 79.2196 19.25 79.2196 19.9574C79.2196 20.6009 79.03 21.1655 78.6507 21.6513C78.2757 22.1371 77.7601 22.5163 77.1039 22.7891C76.4519 23.0575 75.6998 23.1918 74.8475 23.1918C73.5478 23.1918 72.5123 22.9212 71.7409 22.38C70.9739 21.8345 70.5243 21.093 70.3922 20.1555L73.0705 20.0149C73.1515 20.4112 73.3475 20.7138 73.6586 20.9226C73.9696 21.1271 74.3681 21.2294 74.8539 21.2294C75.3311 21.2294 75.7147 21.1378 76.0044 20.9545C76.2985 20.767 76.4476 20.5263 76.4519 20.2322C76.4476 19.9851 76.3432 19.7827 76.1387 19.625C75.9341 19.4631 75.6188 19.3395 75.1926 19.2543L73.4924 18.9155C72.5336 18.7237 71.8198 18.3913 71.351 17.9183C70.8865 17.4453 70.6543 16.8423 70.6543 16.1094C70.6543 15.4787 70.8248 14.9354 71.1657 14.4794C71.5108 14.0234 71.9945 13.6719 72.6167 13.4247C73.2431 13.1776 73.976 13.054 74.8155 13.054C76.0556 13.054 77.0314 13.3161 77.7431 13.8402C78.459 14.3643 78.8766 15.0781 78.9959 15.9815Z" fill="white"/>
</svg>
